<svg xmlns="http://www.w3.org/2000/svg" version="1.1" xlink="http://www.w3.org/1999/xlink" xmlns:svgjs="http://svgjs.com/svgjs" width="100%" height="100%" viewBox="10.44921875 -117.6796875 198.65234375 119.9609375"><g fill="#262626"><path d="M93.22 -110.27C93.11 -111.22 92.99 -111.88 92.86 -112.28C92.73 -112.67 92.56 -112.89 92.35 -112.94C92.14 -113 91.91 -112.93 91.64 -112.75C91.39 -112.56 91.04 -112.37 90.62 -112.16C90.41 -112.05 90.26 -112.03 90.15 -112.08C90.05 -112.13 89.92 -112.18 89.76 -112.24C89.6 -112.29 89.4 -112.3 89.17 -112.28C88.93 -112.25 88.61 -112.16 88.19 -112C87.82 -111.9 87.58 -111.76 87.48 -111.57C87.37 -111.39 87.31 -111.22 87.28 -111.06C87.26 -110.9 87.24 -110.77 87.24 -110.66C87.24 -110.56 87.19 -110.48 87.09 -110.43C86.98 -110.38 86.85 -110.38 86.69 -110.43C86.54 -110.48 86.37 -110.52 86.18 -110.55C86 -110.57 85.76 -110.55 85.47 -110.47C85.19 -110.39 84.86 -110.22 84.49 -109.96C84.23 -109.96 84.05 -109.54 83.94 -108.7C83.84 -107.86 83.78 -106.94 83.78 -105.95C83.78 -104.8 83.81 -103.49 83.86 -102.02C84.02 -99.29 84.11 -96.15 84.14 -92.59C84.16 -89.02 84.16 -85.23 84.14 -81.19C84.11 -77.16 84.05 -72.99 83.94 -68.69C83.84 -64.4 83.71 -60.21 83.55 -56.12C83.39 -52.03 83.22 -48.13 83.04 -44.41C82.85 -40.69 82.64 -37.36 82.41 -34.43C82.17 -31.49 81.94 -29.07 81.7 -27.16C81.47 -25.24 81.22 -24.02 80.96 -23.5C80.38 -22.35 79.88 -21.86 79.46 -22.05C79.04 -22.23 78.31 -23.08 77.26 -24.6C76.84 -25.23 76.08 -26.5 74.98 -28.41C73.88 -30.33 72.52 -32.71 70.89 -35.57C69.27 -38.42 67.46 -41.63 65.47 -45.19C63.48 -48.76 61.38 -52.5 59.18 -56.43C56.98 -60.36 54.73 -64.38 52.42 -68.5C50.12 -72.61 47.88 -76.65 45.7 -80.6C43.53 -84.56 41.45 -88.3 39.46 -91.84C37.46 -95.38 35.68 -98.56 34.11 -101.39C32.54 -104.22 31.22 -106.58 30.14 -108.46C29.07 -110.35 28.35 -111.58 27.98 -112.16C27.72 -112.73 27.51 -113.18 27.35 -113.49C27.19 -113.81 26.99 -114.28 26.72 -114.91C26.46 -115.43 26.08 -116 25.58 -116.6C25.09 -117.2 24.39 -117.56 23.5 -117.66C23.24 -117.71 23 -117.66 22.79 -117.5C22.32 -117.24 22.09 -116.66 22.09 -115.77C21.25 -115.67 20.59 -115.45 20.12 -115.11C19.65 -114.77 19.05 -114.59 18.31 -114.59C18.05 -114.59 17.88 -114.29 17.8 -113.69C17.72 -113.09 17.63 -112.71 17.53 -112.55C17.27 -112.24 17 -112.03 16.74 -111.92C16.48 -111.82 16.23 -111.73 15.99 -111.65C15.76 -111.57 15.58 -111.48 15.44 -111.37C15.31 -111.27 15.27 -111.06 15.33 -110.74C15.33 -110.27 15.39 -109.75 15.52 -109.17C15.65 -108.6 15.85 -107.99 16.11 -107.36C15.85 -105.84 15.56 -103.29 15.25 -99.7C14.93 -96.11 14.61 -91.91 14.27 -87.09C13.92 -82.27 13.61 -77.03 13.32 -71.37C13.03 -65.71 12.75 -60.02 12.46 -54.31C12.17 -48.6 11.91 -43.07 11.67 -37.73C11.44 -32.38 11.23 -27.61 11.04 -23.42C10.86 -19.23 10.72 -15.81 10.61 -13.17C10.51 -10.52 10.45 -9.04 10.45 -8.72C10.51 -7.52 10.56 -6.67 10.61 -6.17C10.66 -5.67 10.73 -5.32 10.81 -5.11C10.89 -4.9 10.96 -4.74 11.04 -4.64C11.12 -4.53 11.19 -4.32 11.24 -4.01L11.55 -1.1C11.76 0 12.21 0.76 12.89 1.18C13.57 1.6 14.15 1.81 14.62 1.81C15.2 1.81 15.6 1.66 15.84 1.38C16.07 1.09 16.27 0.94 16.43 0.94C17 0.79 17.47 0.88 17.84 1.22C18.21 1.56 18.6 1.62 19.02 1.41C19.75 1.26 20.23 0.48 20.44 -0.9C20.64 -2.29 20.75 -3.83 20.75 -5.5C20.7 -6.13 20.71 -6.51 20.79 -6.64C20.87 -6.77 20.95 -7 21.02 -7.31C21.1 -7.62 21.18 -8.21 21.26 -9.08C21.34 -9.94 21.38 -11.42 21.38 -13.52C21.43 -16.72 21.48 -20.54 21.54 -24.99C21.59 -29.45 21.65 -34.16 21.73 -39.14C21.81 -44.12 21.9 -49.18 22.01 -54.31C22.11 -59.45 22.23 -64.33 22.36 -68.97C22.49 -73.61 22.64 -77.82 22.79 -81.62C22.95 -85.42 23.13 -88.42 23.34 -90.62C25.23 -86.75 27.35 -82.55 29.71 -78.05C32.07 -73.54 34.53 -68.92 37.1 -64.17C39.67 -59.43 42.31 -54.68 45.04 -49.91C47.76 -45.14 50.43 -40.53 53.05 -36.08C55.67 -31.62 58.2 -27.43 60.64 -23.5C63.07 -19.57 65.3 -16.07 67.32 -13.01C69.34 -9.94 71.08 -7.41 72.55 -5.42C74.01 -3.43 75.11 -2.15 75.85 -1.57C76.74 -0.94 77.69 -0.39 78.72 0.08C79.74 0.55 80.64 0.73 81.43 0.63C81.85 0.58 82.02 0.38 81.94 0.04C81.86 -0.3 81.73 -0.65 81.54 -1.02C81.36 -1.39 81.22 -1.73 81.11 -2.04C81.01 -2.36 81.11 -2.49 81.43 -2.44C81.58 -2.44 81.95 -2.21 82.53 -1.77C83.1 -1.32 83.6 -0.94 84.02 -0.63C84.33 -0.37 84.71 -0.33 85.16 -0.51C85.6 -0.69 85.77 -0.94 85.67 -1.26C85.57 -1.73 85.57 -1.99 85.67 -2.04C85.78 -2.1 85.93 -2.1 86.14 -2.04C86.35 -1.99 86.61 -1.99 86.93 -2.04C87.24 -2.1 87.56 -2.38 87.87 -2.91C88.19 -3.48 88.49 -3.89 88.78 -4.13C89.06 -4.36 89.21 -4.64 89.21 -4.95C89.52 -7.57 89.84 -10.99 90.15 -15.21C90.47 -19.43 90.75 -24.1 91.02 -29.24C91.28 -34.37 91.53 -39.81 91.76 -45.55C92 -51.28 92.22 -57 92.43 -62.68C92.64 -68.37 92.81 -73.86 92.94 -79.15C93.07 -84.44 93.18 -89.23 93.26 -93.53C93.33 -97.83 93.37 -101.46 93.37 -104.42C93.37 -107.38 93.32 -109.33 93.22 -110.27Z M208.97 -102.57C209.34 -104.56 208.92 -106.22 207.72 -107.56C206.51 -108.9 204.9 -109.97 202.88 -110.78C200.87 -111.59 198.68 -112.16 196.32 -112.47C193.96 -112.79 191.84 -112.92 189.95 -112.87C185.34 -112.71 180.46 -112.07 175.3 -110.94C170.13 -109.81 165.12 -108.33 160.24 -106.5C155.37 -104.67 150.88 -102.52 146.76 -100.05C142.65 -97.59 139.34 -94.92 136.82 -92.04C135.46 -90.52 134.32 -88.71 133.4 -86.61C132.49 -84.52 132.03 -82.47 132.03 -80.48C132.03 -78.7 132.45 -77.05 133.29 -75.53C133.44 -75.22 133.68 -74.8 133.99 -74.27C134.31 -73.75 134.63 -73.2 134.97 -72.62C135.32 -72.05 135.62 -71.5 135.88 -70.97C136.14 -70.45 136.3 -70.08 136.35 -69.87C136.51 -67.93 137.15 -66.32 138.28 -65.04C139.4 -63.76 141.17 -62.46 143.58 -61.15C145.73 -60 148.38 -59.03 151.52 -58.24C154.66 -57.45 157.98 -56.75 161.46 -56.12C164.95 -55.49 168.48 -54.87 172.07 -54.27C175.66 -53.67 178.99 -52.99 182.05 -52.23C185.12 -51.47 187.75 -50.55 189.95 -49.48C192.15 -48.4 193.65 -47.11 194.43 -45.59C194.85 -44.7 195.18 -43.84 195.42 -43.03C195.65 -42.22 195.77 -41.39 195.77 -40.56C195.77 -38.04 194.91 -35.64 193.18 -33.36C191.45 -31.09 189.17 -28.96 186.34 -27C183.51 -25.03 180.26 -23.23 176.59 -21.57C172.92 -19.92 169.16 -18.5 165.31 -17.29C161.46 -16.09 157.66 -15.12 153.92 -14.38C150.17 -13.65 146.78 -13.2 143.74 -13.05C142.43 -12.94 140.86 -12.92 139.02 -12.97C137.19 -13.02 135.38 -13.22 133.6 -13.56C131.82 -13.9 130.22 -14.46 128.81 -15.25C127.39 -16.03 126.42 -17.13 125.9 -18.55C125.53 -19.54 125.79 -21 126.68 -22.91C127.57 -24.82 129.24 -26.85 131.67 -29C134.11 -31.15 137.39 -33.27 141.5 -35.37C145.61 -37.46 150.66 -39.19 156.63 -40.56C157.41 -40.82 158.31 -41 159.3 -41.11C160.3 -41.21 161.29 -41.39 162.29 -41.66C163.18 -41.87 163.95 -41.97 164.61 -41.97C165.26 -41.97 165.72 -42.26 165.98 -42.84C166.09 -43.15 165.88 -43.52 165.35 -43.94C164.83 -44.36 164.17 -44.56 163.39 -44.56C162.18 -44.56 160.9 -44.51 159.54 -44.41C158.17 -44.3 157.05 -44.2 156.16 -44.09C154.06 -43.94 151.89 -43.57 149.63 -42.99C147.38 -42.42 145.13 -41.7 142.87 -40.83C140.62 -39.97 138.38 -39 136.15 -37.92C133.93 -36.85 131.79 -35.74 129.75 -34.58C128.28 -33.8 126.79 -32.76 125.27 -31.48C123.75 -30.19 122.36 -28.74 121.1 -27.12C119.85 -25.49 118.82 -23.76 118.04 -21.93C117.25 -20.09 116.86 -18.21 116.86 -16.27C116.86 -14.65 117.2 -13.01 117.88 -11.36C118.56 -9.71 119.66 -8.07 121.18 -6.44C124.33 -3.3 128.03 -1.06 132.3 0.28C136.57 1.61 141.14 2.28 146.02 2.28C148.95 2.28 151.93 2.06 154.94 1.61C157.95 1.17 160.93 0.56 163.86 -0.2C166.79 -0.96 169.65 -1.86 172.43 -2.91C175.2 -3.96 177.82 -5.08 180.29 -6.29C183.12 -7.65 186.08 -9.37 189.17 -11.44C192.26 -13.51 195.08 -15.85 197.62 -18.47C200.16 -21.09 202.23 -23.95 203.83 -27.04C205.42 -30.13 206.12 -33.4 205.91 -36.86C205.75 -38.59 205.41 -40.1 204.89 -41.38C204.36 -42.67 203.79 -43.8 203.16 -44.8C202.53 -45.8 201.94 -46.65 201.39 -47.35C200.84 -48.06 200.46 -48.7 200.25 -49.28C199.94 -50.22 199.57 -51.15 199.15 -52.07C198.73 -52.99 198.18 -53.93 197.5 -54.9C196.82 -55.87 195.93 -56.85 194.83 -57.85C193.73 -58.84 192.36 -59.89 190.74 -60.99C188.43 -62.46 185.77 -63.69 182.76 -64.69C179.75 -65.68 176.58 -66.52 173.25 -67.2C169.92 -67.88 166.58 -68.47 163.23 -68.97C159.88 -69.47 156.73 -69.94 153.8 -70.38C150.86 -70.83 148.27 -71.33 146.02 -71.88C143.76 -72.43 142.09 -73.1 140.99 -73.88C139.73 -74.77 139.34 -75.94 139.81 -77.38C140.28 -78.82 141.37 -80.37 143.07 -82.02C144.77 -83.67 146.96 -85.36 149.63 -87.09C152.31 -88.81 155.23 -90.44 158.4 -91.96C161.57 -93.48 164.84 -94.81 168.22 -95.97C171.6 -97.12 174.86 -97.91 178.01 -98.33C180.89 -98.8 183.25 -99.03 185.08 -99.03C186.86 -99.03 188.17 -98.88 189.01 -98.56C189.85 -98.25 190.36 -97.84 190.54 -97.34C190.73 -96.85 190.67 -96.31 190.39 -95.73C190.1 -95.16 189.74 -94.63 189.32 -94.16C188.75 -93.43 188.33 -92.82 188.07 -92.35C187.81 -91.88 187.62 -91.51 187.52 -91.25C187.26 -90.47 187.19 -89.93 187.32 -89.64C187.45 -89.35 187.83 -89.21 188.46 -89.21C188.98 -89.21 189.39 -89.12 189.68 -88.93C189.97 -88.75 190.22 -88.55 190.43 -88.34C190.63 -88.13 190.86 -87.95 191.09 -87.79C191.33 -87.64 191.66 -87.61 192.08 -87.71C192.55 -87.77 193.2 -87.92 194.04 -88.19C194.88 -88.45 195.73 -88.75 196.6 -89.09C197.46 -89.43 198.27 -89.76 199.03 -90.07C199.79 -90.39 200.3 -90.67 200.56 -90.94C202.56 -92.4 204.35 -94.17 205.95 -96.24C207.55 -98.31 208.56 -100.42 208.97 -102.57Z"></path></g></svg>