<?xml version="1.0" standalone="no"?>
<!DOCTYPE svg PUBLIC "-//W3C//DTD SVG 20010904//EN"
 "http://www.w3.org/TR/2001/REC-SVG-20010904/DTD/svg10.dtd">
<svg version="1.0" xmlns="http://www.w3.org/2000/svg"
 width="192.000000pt" height="192.000000pt" viewBox="0 0 192.000000 192.000000"
 preserveAspectRatio="xMidYMid meet">

<g transform="translate(0.000000,192.000000) scale(0.100000,-0.100000)"
fill="#000000" stroke="none">
<path d="M145 1465 c-20 -19 -34 -38 -31 -44 4 -5 2 -56 -3 -113 -20 -210 -44
-794 -35 -834 9 -36 12 -39 44 -39 34 0 35 2 41 45 3 25 9 197 13 382 3 186 9
344 12 353 4 10 40 -46 104 -163 165 -305 297 -521 353 -579 29 -31 67 -44 67
-24 0 5 8 7 18 4 10 -2 25 4 34 14 22 24 36 243 45 666 7 345 9 332 -48 305
l-26 -12 -7 -326 c-7 -333 -14 -432 -32 -450 -12 -12 -42 36 -299 498 -104
188 -195 343 -201 346 -6 2 -28 -11 -49 -29z"/>
<path d="M1525 1430 c-156 -41 -277 -105 -330 -174 -40 -53 -42 -98 -7 -176
40 -88 65 -101 279 -144 193 -38 236 -55 253 -96 18 -44 4 -84 -47 -130 -134
-124 -515 -199 -562 -111 -13 23 10 72 50 106 48 40 141 82 226 101 40 9 73
20 73 25 0 16 -97 9 -166 -12 -141 -43 -230 -107 -259 -184 -21 -54 -10 -97
38 -143 68 -66 184 -87 327 -58 237 48 420 190 420 326 0 53 -67 178 -116 215
-49 38 -130 63 -279 87 -207 33 -232 52 -155 122 72 65 223 130 328 141 69 7
93 -4 75 -35 -20 -31 -15 -49 13 -56 64 -16 170 77 162 143 -8 68 -168 94
-323 53z"/>
</g>
</svg>
