<?xml version="1.0" standalone="no"?>
<!DOCTYPE svg PUBLIC "-//W3C//DTD SVG 20010904//EN"
 "http://www.w3.org/TR/2001/REC-SVG-20010904/DTD/svg10.dtd">
<svg version="1.0" xmlns="http://www.w3.org/2000/svg"
 width="1592.000000pt" height="1592.000000pt" viewBox="0 0 1592.000000 1592.000000"
 preserveAspectRatio="xMidYMid meet">
<metadata>
Created by potrace 1.14, written by Peter Selinger 2001-2017
</metadata>
<g transform="translate(0.000000,1592.000000) scale(0.100000,-0.100000)"
fill="#000000" stroke="none">
<path d="M1000 12751 c0 -6 -7 -11 -15 -11 -17 0 -41 -43 -48 -87 -7 -45 -12
-50 -59 -57 -39 -6 -103 -35 -138 -62 -15 -11 -31 -14 -82 -16 -16 0 -28 -5
-28 -10 0 -5 -5 -6 -10 -3 -13 8 -27 -30 -36 -92 -9 -70 -47 -108 -133 -134
-23 -7 -47 -21 -52 -31 -10 -19 -7 -106 6 -163 4 -16 8 -34 9 -40 1 -5 4 -14
7 -20 16 -29 30 -107 25 -141 -11 -71 -20 -149 -20 -176 -1 -16 -3 -28 -6 -28
-3 0 -7 -24 -8 -53 -7 -104 -10 -142 -12 -142 -1 0 -4 -22 -6 -50 -2 -27 -5
-75 -8 -105 -3 -30 -7 -84 -10 -120 -3 -36 -8 -90 -11 -120 -8 -102 -16 -195
-20 -255 -10 -132 -15 -203 -20 -275 -2 -41 -7 -95 -9 -120 -3 -25 -7 -88 -11
-140 -3 -52 -8 -122 -10 -155 -3 -33 -7 -98 -10 -145 -3 -47 -8 -116 -10 -155
-3 -38 -7 -106 -10 -150 -8 -134 -16 -265 -20 -357 -2 -48 -6 -92 -10 -98 -3
-5 -1 -10 5 -10 6 0 8 -4 5 -10 -6 -10 -11 -77 -20 -270 -3 -52 -7 -142 -10
-200 -3 -58 -8 -150 -10 -205 -2 -55 -4 -100 -5 -100 -1 0 -3 -36 -5 -80 -2
-44 -6 -134 -9 -200 -4 -66 -9 -167 -12 -225 -3 -58 -7 -143 -10 -190 -2 -47
-6 -130 -9 -185 -5 -118 -14 -298 -20 -410 -2 -44 -7 -138 -10 -210 -12 -245
-15 -320 -20 -420 -3 -55 -7 -161 -10 -235 -11 -289 -14 -330 -20 -340 -3 -5
-1 -10 5 -10 6 0 8 -5 3 -12 -4 -7 -8 -51 -10 -98 -4 -134 -12 -335 -13 -335
-1 0 -3 -56 -6 -125 -8 -241 -11 -287 -18 -298 -3 -6 -2 -13 4 -17 6 -4 8 -10
5 -15 -3 -5 -8 -67 -11 -137 -2 -70 -6 -173 -9 -227 -15 -347 -19 -450 -19
-606 0 -203 8 -299 30 -342 24 -46 35 -106 38 -205 0 -24 3 -43 6 -43 3 0 6
-15 7 -33 7 -102 53 -177 138 -224 50 -27 70 -32 118 -31 50 1 62 5 87 31 18
18 44 32 69 37 35 6 48 3 86 -21 35 -22 54 -28 82 -24 20 2 40 10 43 16 4 6
10 10 14 9 4 0 15 9 25 22 46 60 70 207 76 473 1 72 8 144 15 160 6 17 11 31
11 33 -1 1 0 3 0 5 10 22 22 259 23 454 1 106 5 193 9 193 5 0 5 5 1 11 -3 6
-6 36 -5 67 1 66 8 614 16 1172 6 509 13 874 30 1750 7 350 15 709 30 1283 2
92 7 172 10 177 3 6 1 10 -5 10 -6 0 -8 5 -4 11 4 6 8 66 10 133 7 255 14 422
17 449 2 15 0 27 -5 27 -5 0 -6 6 -1 13 4 6 8 48 10 92 2 88 10 264 19 450 4
66 7 137 8 157 0 21 3 38 6 38 3 0 5 21 5 47 0 27 2 64 5 83 5 32 19 6 181
-315 191 -380 234 -463 455 -880 29 -55 65 -126 81 -157 15 -32 31 -58 35 -58
5 0 8 -8 8 -18 0 -10 4 -22 9 -27 9 -10 40 -67 118 -215 72 -135 134 -250 170
-315 18 -33 48 -89 66 -125 17 -36 35 -67 38 -70 3 -3 26 -43 51 -90 25 -47
62 -114 82 -150 21 -36 40 -73 43 -82 3 -10 9 -18 14 -18 5 0 9 -8 9 -17 0 -9
6 -24 14 -32 7 -9 32 -52 56 -96 23 -44 62 -114 86 -156 24 -42 44 -81 44 -87
0 -7 3 -12 8 -12 4 0 18 -21 32 -47 13 -27 27 -50 30 -53 3 -3 12 -18 20 -35
8 -16 41 -74 73 -128 31 -54 57 -103 57 -108 0 -5 5 -9 11 -9 5 0 8 -4 4 -9
-3 -5 0 -13 5 -16 6 -4 15 -17 20 -28 6 -12 21 -40 35 -62 14 -22 28 -47 32
-55 4 -8 26 -48 50 -88 24 -40 43 -77 43 -82 0 -6 5 -10 10 -10 6 0 10 -4 10
-10 0 -8 72 -138 100 -180 6 -8 13 -22 17 -30 4 -8 31 -55 60 -103 29 -48 53
-89 53 -91 0 -2 119 -205 150 -256 5 -8 42 -71 82 -139 40 -68 82 -138 93
-156 11 -19 44 -76 74 -127 30 -51 57 -95 61 -98 3 -3 24 -36 47 -75 22 -38
63 -107 91 -153 29 -46 52 -87 52 -91 0 -4 9 -16 20 -26 10 -9 18 -20 17 -24
-1 -3 12 -26 27 -51 66 -104 104 -163 146 -231 25 -40 55 -88 68 -107 12 -18
22 -35 22 -37 0 -3 22 -38 50 -79 27 -41 50 -77 50 -81 0 -7 39 -63 58 -83 6
-7 12 -20 12 -28 0 -8 7 -17 15 -20 8 -4 15 -10 15 -15 0 -12 92 -153 102
-157 5 -2 8 -8 8 -13 0 -9 175 -276 210 -319 11 -14 20 -31 20 -38 0 -7 4 -10
10 -7 5 3 10 0 10 -8 0 -11 54 -92 90 -134 5 -7 10 -17 10 -22 0 -6 6 -14 14
-18 7 -4 19 -18 25 -31 7 -13 19 -31 26 -40 8 -9 43 -55 77 -102 35 -47 70
-92 78 -101 14 -15 88 -101 99 -116 12 -16 90 -73 100 -73 6 0 11 -4 11 -10 0
-5 6 -10 14 -10 8 0 16 -4 18 -8 4 -10 165 -90 210 -103 52 -16 145 -21 168
-9 16 8 19 18 15 46 -2 20 -10 42 -16 50 -6 8 -9 14 -5 14 3 0 -3 16 -14 34
-28 51 -30 91 -5 91 18 1 104 -55 149 -97 11 -10 28 -20 38 -24 10 -3 18 -9
18 -14 0 -26 80 -28 119 -3 20 13 23 21 18 53 -2 20 -2 42 2 47 3 5 31 10 62
10 62 1 77 10 118 77 13 21 41 58 63 83 21 24 39 53 39 64 2 25 6 67 24 219
11 91 30 314 35 415 2 28 7 56 13 62 6 9 6 13 -2 13 -7 0 -9 4 -6 10 6 9 18
157 19 228 0 17 3 32 6 32 3 0 5 33 6 73 1 39 4 117 8 172 4 55 9 134 11 175
3 41 7 114 10 163 3 48 8 129 10 180 3 50 7 133 10 182 3 50 8 142 11 205 6
141 13 298 19 405 2 44 6 148 10 230 3 83 8 197 11 255 3 58 7 148 9 200 11
290 16 411 20 503 4 95 14 345 20 532 2 44 4 80 5 80 0 0 3 65 5 145 4 137 8
276 20 605 8 206 23 720 30 1035 3 107 7 305 10 440 4 135 8 361 10 502 2 141
6 261 9 267 4 5 2 12 -4 16 -6 4 -7 11 -3 18 9 16 10 87 0 87 -4 0 -5 6 -1 12
11 17 12 788 2 794 -5 3 -4 13 1 22 6 11 6 24 0 35 -7 12 -6 17 1 17 6 0 9 4
6 9 -3 5 -8 39 -11 76 -16 220 -49 274 -138 225 -23 -13 -45 -27 -48 -32 -6
-9 -19 -10 -126 -6 -28 1 -66 -5 -85 -12 -40 -16 -79 -50 -72 -61 3 -5 1 -9
-3 -9 -5 0 -9 -12 -9 -27 1 -28 1 -28 -59 -25 -37 2 -74 -3 -99 -13 -46 -19
-100 -55 -92 -62 3 -3 1 -16 -4 -29 -5 -13 -12 -59 -16 -101 -7 -88 -11 -354
-5 -367 2 -4 5 -56 7 -115 1 -58 6 -178 10 -266 9 -231 10 -1835 1 -1835 -4 0
-3 -9 3 -20 8 -14 8 -20 0 -20 -7 0 -8 -6 -1 -19 6 -10 8 -21 5 -24 -4 -3 -8
-104 -10 -224 -3 -198 -6 -316 -19 -773 -7 -237 -22 -657 -30 -810 -3 -58 -7
-163 -10 -235 -6 -147 -12 -274 -20 -420 -3 -55 -8 -134 -10 -175 -4 -68 -7
-126 -20 -335 -7 -103 -14 -202 -21 -270 -3 -33 -6 -84 -7 -112 -1 -29 -4 -53
-7 -53 -3 0 -5 -19 -6 -43 -1 -58 -28 -339 -35 -357 -1 -3 -1 -8 -1 -11 2 -9
-22 -158 -32 -204 -15 -69 -60 -151 -101 -184 -40 -31 -65 -15 -158 107 -53
68 -160 237 -190 300 -12 23 -25 42 -29 42 -4 0 -8 5 -8 10 0 6 -10 27 -23 48
-13 20 -37 62 -54 92 -17 30 -47 83 -67 117 -20 34 -36 66 -36 72 0 6 -3 11
-8 11 -4 0 -16 19 -27 41 -32 67 -39 79 -47 79 -5 0 -8 4 -8 10 0 5 -34 69
-75 141 -41 72 -75 135 -75 140 0 5 -3 9 -8 9 -4 0 -13 15 -21 33 -8 17 -17
34 -20 37 -3 3 -14 21 -25 40 -57 109 -90 167 -102 181 -8 9 -11 19 -7 22 3 4
2 7 -3 7 -6 0 -16 16 -24 35 -8 19 -17 35 -22 35 -4 0 -8 5 -8 10 0 6 -36 74
-80 151 -44 76 -80 141 -80 143 0 3 -15 31 -34 63 -96 165 -120 209 -122 222
-2 8 -7 17 -12 20 -5 3 -26 38 -47 76 -20 39 -50 93 -66 120 -16 28 -34 60
-39 72 -5 11 -14 24 -20 28 -5 3 -8 11 -5 16 4 5 1 9 -4 9 -6 0 -11 4 -11 10
0 5 -13 31 -28 57 -16 26 -48 84 -72 128 -24 44 -52 94 -61 110 -10 17 -27 46
-37 65 -10 19 -29 53 -42 75 -12 22 -34 60 -48 85 -14 25 -45 80 -68 122 -24
43 -44 82 -44 88 0 5 -4 10 -10 10 -5 0 -10 6 -10 14 0 8 -7 22 -16 30 -8 9
-12 16 -7 16 4 0 4 4 -2 8 -10 7 -36 53 -79 137 -12 22 -24 42 -28 43 -5 2 -8
7 -8 12 0 5 -22 47 -50 95 -27 48 -50 90 -50 95 0 4 -7 13 -15 20 -8 7 -13 16
-10 20 3 5 1 11 -4 15 -5 3 -16 18 -24 33 -7 15 -26 50 -42 77 -16 28 -33 59
-39 70 -6 11 -17 28 -25 38 -8 9 -11 17 -7 17 4 0 -2 13 -13 29 -12 16 -21 34
-21 39 0 6 -3 12 -7 14 -5 2 -17 21 -29 43 -63 120 -170 310 -176 313 -5 2 -8
8 -8 14 0 6 -27 58 -60 115 -33 58 -60 111 -60 118 0 7 -7 16 -16 19 -9 4 -14
9 -11 12 3 3 -16 42 -41 87 -26 45 -54 96 -62 112 -8 17 -17 32 -20 35 -3 3
-17 27 -30 55 -14 27 -29 54 -33 60 -14 18 -47 79 -58 108 -6 15 -15 27 -20
27 -5 0 -9 9 -9 20 0 11 -4 20 -9 20 -5 0 -14 15 -22 33 -7 17 -16 34 -19 37
-4 3 -13 19 -22 35 -33 66 -53 100 -61 103 -4 2 -5 7 -2 12 3 4 -2 13 -10 20
-8 7 -15 16 -15 20 0 5 -24 50 -54 102 -59 103 -94 165 -139 248 -16 30 -37
63 -45 73 -8 9 -12 17 -8 17 4 0 -2 12 -13 26 -12 15 -21 33 -21 40 0 8 -5 14
-10 14 -6 0 -9 3 -8 8 2 7 -34 74 -78 144 -13 21 -24 41 -24 44 0 4 -31 61
-69 128 -86 152 -246 437 -279 496 -14 25 -47 82 -73 128 -27 45 -49 87 -49
92 0 6 -4 10 -10 10 -5 0 -10 6 -10 14 0 8 -11 28 -25 44 -13 16 -22 31 -19
34 2 3 -2 11 -11 18 -8 7 -15 18 -15 24 0 6 -14 38 -30 70 -17 32 -30 65 -30
72 0 8 -4 14 -10 14 -5 0 -9 3 -9 8 3 12 -25 72 -33 72 -4 0 -8 5 -8 11 0 23
-85 115 -126 136 -49 26 -144 42 -144 24z"/>
<path d="M14317 12374 c-1 -1 -42 -5 -92 -8 -153 -10 -229 -16 -265 -21 -19
-2 -53 -7 -75 -9 -22 -3 -60 -8 -85 -11 -38 -4 -118 -17 -260 -41 -14 -2 -36
-6 -50 -9 -14 -3 -36 -7 -50 -10 -14 -2 -41 -7 -60 -11 -19 -3 -44 -8 -55 -9
-11 -2 -20 -4 -20 -5 0 -2 -20 -6 -66 -14 -20 -3 -42 -8 -50 -10 -8 -3 -26 -8
-41 -11 -16 -3 -40 -7 -55 -10 -16 -3 -53 -13 -83 -21 -30 -9 -68 -18 -85 -21
-16 -3 -48 -11 -70 -18 -22 -8 -51 -16 -65 -19 -23 -5 -60 -15 -185 -52 -27
-8 -59 -16 -69 -19 -24 -6 -293 -93 -321 -104 -11 -5 -103 -39 -205 -76 -102
-38 -189 -71 -195 -75 -5 -4 -21 -11 -35 -15 -28 -9 -86 -34 -270 -118 -41
-19 -79 -34 -84 -35 -5 0 -12 -5 -15 -10 -3 -6 -12 -12 -20 -14 -7 -2 -50 -22
-94 -45 -44 -24 -86 -43 -93 -43 -7 0 -14 -4 -16 -8 -2 -5 -32 -24 -68 -43
-36 -18 -100 -55 -142 -81 -43 -27 -80 -48 -82 -48 -3 0 -74 -46 -157 -102
-199 -135 -193 -131 -202 -145 -4 -7 -14 -13 -22 -13 -7 0 -15 -4 -17 -9 -2
-4 -34 -34 -73 -66 -105 -87 -303 -290 -371 -380 -33 -44 -79 -111 -101 -150
-47 -81 -114 -215 -107 -215 3 0 -2 -12 -10 -27 -14 -27 -26 -57 -32 -78 -1
-5 -12 -45 -24 -87 -11 -43 -19 -82 -15 -87 3 -5 2 -12 -3 -15 -15 -9 -21
-220 -9 -307 8 -52 30 -130 52 -183 8 -20 15 -39 16 -43 0 -5 6 -15 13 -23 7
-8 18 -30 26 -47 7 -18 17 -33 23 -33 6 0 8 -3 4 -6 -3 -4 10 -29 29 -58 18
-28 34 -56 34 -63 0 -6 4 -13 8 -15 7 -3 76 -116 77 -128 1 -3 13 -27 27 -55
14 -27 28 -74 32 -104 4 -29 8 -57 11 -61 2 -3 6 -19 9 -34 8 -42 37 -118 58
-148 10 -14 18 -31 18 -37 0 -31 283 -281 318 -281 6 0 12 -3 14 -7 9 -22 266
-154 383 -199 11 -4 22 -8 25 -8 3 -1 10 -4 15 -7 9 -6 162 -57 195 -65 8 -2
45 -12 82 -23 36 -11 69 -17 72 -13 3 3 6 1 6 -4 0 -5 12 -11 28 -12 15 -1 38
-6 52 -12 14 -5 39 -11 55 -14 17 -2 31 -5 33 -6 3 -3 1 -3 107 -24 11 -2 52
-12 90 -21 39 -9 81 -18 95 -20 14 -2 36 -6 50 -9 14 -3 70 -15 125 -25 88
-18 120 -24 185 -35 8 -1 29 -6 45 -9 17 -4 46 -9 65 -11 19 -3 60 -10 90 -16
30 -6 71 -13 90 -16 19 -3 46 -7 60 -10 32 -6 355 -62 395 -69 78 -13 92 -15
115 -21 14 -3 39 -7 55 -10 17 -2 41 -6 55 -9 14 -2 39 -6 55 -8 17 -2 46 -8
65 -12 19 -4 44 -9 55 -11 64 -10 93 -16 120 -24 17 -5 55 -14 85 -19 58 -12
89 -18 118 -25 9 -2 40 -10 67 -16 62 -14 80 -19 105 -25 46 -11 56 -14 88
-24 17 -5 32 -7 32 -4 0 3 6 1 13 -5 7 -6 27 -13 44 -17 18 -3 45 -10 60 -16
15 -6 36 -12 45 -14 36 -7 287 -110 353 -145 92 -48 149 -83 153 -92 2 -4 8
-8 13 -8 12 0 149 -138 149 -150 0 -5 6 -15 13 -22 13 -13 86 -178 92 -208 2
-8 10 -42 19 -75 12 -44 15 -91 12 -180 -3 -66 -7 -129 -9 -140 -31 -130 -101
-285 -167 -372 -22 -29 -38 -53 -37 -53 8 0 -98 -114 -189 -205 -98 -97 -170
-161 -201 -179 -8 -4 -23 -16 -33 -25 -34 -30 -50 -41 -56 -41 -3 1 -14 -8
-24 -20 -10 -12 -21 -20 -24 -18 -3 2 -13 -4 -23 -12 -26 -21 -142 -100 -148
-100 -6 0 -86 -51 -95 -60 -7 -8 -135 -76 -220 -118 -41 -20 -77 -39 -80 -42
-8 -9 -285 -140 -295 -140 -4 0 -78 -32 -150 -65 -16 -7 -33 -11 -37 -9 -4 3
-8 1 -8 -4 0 -9 -54 -28 -56 -20 0 2 -8 -3 -16 -10 -9 -7 -29 -17 -45 -22 -15
-5 -57 -20 -93 -33 -76 -29 -288 -105 -295 -107 -7 -1 -35 -10 -65 -21 -59
-20 -293 -89 -390 -115 -8 -2 -33 -8 -55 -14 -22 -6 -47 -13 -55 -14 -8 -2
-35 -9 -60 -15 -25 -7 -52 -15 -60 -16 -8 -2 -64 -15 -125 -29 -60 -14 -121
-27 -135 -30 -14 -3 -36 -8 -50 -11 -14 -3 -38 -7 -55 -10 -16 -3 -43 -8 -60
-12 -16 -3 -39 -7 -50 -9 -20 -2 -59 -9 -105 -19 -14 -3 -47 -8 -75 -11 -27
-4 -57 -8 -65 -9 -8 -2 -40 -6 -70 -10 -30 -4 -66 -9 -80 -11 -89 -16 -344
-29 -565 -29 -254 1 -347 8 -530 40 -11 2 -39 8 -62 13 -24 5 -43 8 -43 5 0
-3 -6 -1 -12 5 -7 6 -31 13 -53 17 -22 4 -46 13 -54 19 -8 6 -15 10 -15 8 -1
-5 -45 12 -113 44 -66 30 -136 77 -178 119 -56 55 -114 152 -107 178 1 4 -2 7
-6 7 -4 0 -9 11 -10 25 -1 14 -2 31 -3 38 -2 24 12 102 28 152 52 169 177 352
362 530 77 74 106 100 201 176 70 55 267 189 279 189 6 0 11 3 11 8 0 4 21 18
48 32 26 13 49 27 52 30 3 3 16 11 29 18 13 8 39 23 58 33 19 11 45 27 59 35
13 9 24 12 24 8 0 -5 6 -2 13 7 7 9 14 16 17 16 3 0 64 28 135 63 72 34 139
66 150 71 11 5 46 20 78 33 31 14 61 26 65 27 4 1 16 5 27 10 25 9 57 21 70
25 6 2 62 22 125 44 63 23 116 41 118 40 1 0 3 0 5 1 1 0 13 3 27 5 13 2 27 8
30 12 3 4 10 8 16 9 39 7 63 13 94 23 19 6 42 13 50 15 8 2 58 15 110 30 52
14 107 27 123 27 15 1 27 5 27 9 0 4 8 8 18 8 9 0 35 5 57 11 22 6 54 13 70
16 17 3 37 7 45 10 8 3 38 8 65 10 28 2 61 7 75 11 14 3 29 5 33 4 5 -1 46 7
92 18 81 20 149 31 210 36 68 5 94 16 115 50 18 29 19 38 9 57 -24 45 -85 84
-146 94 -71 12 -314 2 -538 -21 -16 -2 -64 -6 -105 -9 -41 -4 -86 -8 -100 -11
-14 -2 -49 -7 -79 -10 -30 -4 -63 -9 -75 -11 -12 -3 -32 -7 -46 -9 -14 -3 -32
-6 -40 -8 -43 -10 -136 -30 -145 -31 -5 -1 -16 -5 -22 -9 -7 -5 -13 -6 -13 -3
0 3 -12 1 -27 -5 -29 -11 -69 -21 -90 -22 -7 0 -13 -4 -13 -9 0 -5 -4 -6 -10
-3 -5 3 -16 3 -22 -2 -7 -4 -19 -9 -25 -10 -7 -2 -19 -4 -25 -6 -7 -1 -17 -5
-23 -9 -5 -3 -30 -11 -55 -18 -48 -12 -365 -129 -440 -162 -25 -11 -58 -26
-75 -33 -16 -8 -56 -25 -88 -39 -31 -14 -59 -26 -62 -27 -2 0 -76 -36 -165
-80 -88 -43 -162 -78 -164 -76 -2 1 -12 -5 -22 -13 -11 -8 -41 -26 -69 -40
-27 -14 -51 -28 -53 -32 -2 -5 -12 -8 -23 -8 -10 0 -19 -3 -19 -7 0 -5 -10
-13 -23 -19 -110 -52 -357 -208 -357 -225 0 -5 -6 -9 -14 -9 -8 0 -16 -3 -18
-7 -1 -5 -28 -28 -58 -53 -67 -54 -230 -217 -285 -284 -22 -27 -46 -55 -52
-62 -7 -7 -13 -17 -13 -22 0 -6 -4 -12 -9 -14 -12 -5 -102 -141 -153 -233 -38
-70 -113 -242 -124 -285 -23 -94 -31 -133 -39 -190 -8 -49 -3 -285 5 -285 1 0
3 -15 6 -34 9 -69 96 -301 116 -309 4 -2 8 -8 8 -14 0 -6 14 -30 30 -55 17
-24 30 -48 30 -54 0 -5 3 -9 8 -9 4 0 14 -11 22 -24 24 -37 100 -125 154 -175
27 -25 57 -53 65 -61 25 -23 74 -63 105 -85 16 -11 34 -26 42 -33 31 -30 227
-147 330 -198 100 -49 278 -119 329 -130 21 -4 111 -30 155 -44 14 -5 32 -9
40 -9 8 -1 65 -12 127 -25 62 -13 134 -27 160 -31 26 -3 62 -8 78 -10 48 -7
104 -14 190 -22 97 -10 626 -9 710 1 33 4 76 9 95 10 19 2 64 8 100 12 36 5
77 8 93 9 15 0 27 2 27 5 0 3 8 6 18 7 25 1 103 11 133 18 14 2 41 7 60 9 19
3 34 5 34 6 0 1 14 4 30 6 17 2 41 7 55 11 14 3 32 7 40 9 17 3 82 17 90 19 3
0 21 4 40 8 65 13 75 16 230 56 85 23 163 43 172 45 46 12 311 97 326 105 9 5
20 9 25 10 4 1 8 1 10 2 1 0 9 2 17 4 36 7 462 177 550 220 36 17 67 31 70 32
3 0 24 10 48 22 23 12 42 18 42 14 0 -5 4 -2 9 5 4 7 15 14 23 16 8 1 27 9 41
19 15 9 32 17 40 17 7 0 17 4 22 9 6 5 39 25 75 44 113 59 179 96 271 152 50
30 92 55 95 55 3 0 10 5 17 10 7 6 68 47 137 92 69 45 126 85 128 90 2 4 8 8
13 8 6 0 15 5 22 10 7 6 46 37 89 69 42 32 83 64 91 72 8 8 30 25 48 39 76 58
236 207 333 309 107 113 108 114 151 167 22 27 43 51 47 52 5 2 8 10 8 18 0 8
4 14 9 14 4 0 20 17 34 37 14 21 48 71 76 111 28 40 51 75 51 78 0 3 13 24 28
47 25 36 134 238 133 244 0 2 9 24 20 50 12 27 23 55 25 63 2 8 17 65 33 125
35 132 45 212 45 365 0 115 -6 178 -28 286 -15 74 -82 254 -99 265 -5 4 -6 12
-3 18 4 6 2 11 -3 11 -6 0 -11 5 -11 11 0 7 -20 45 -45 87 -25 41 -45 76 -45
78 0 2 -42 63 -94 135 -82 113 -147 233 -161 298 -5 22 -49 125 -56 131 -8 7
-22 44 -21 53 1 4 -3 7 -8 7 -6 0 -10 6 -10 14 0 8 -6 21 -14 28 -7 8 -17 24
-20 36 -4 12 -12 22 -17 22 -5 0 -9 6 -9 13 0 6 -10 24 -23 39 -12 14 -31 39
-42 55 -33 46 -153 171 -159 165 -3 -3 -6 -1 -6 5 0 6 -26 31 -57 57 -32 26
-67 55 -78 64 -41 36 -205 152 -215 152 -5 0 -10 4 -10 10 0 5 -11 12 -25 16
-14 3 -25 10 -25 15 0 5 -5 9 -11 9 -6 0 -24 9 -40 21 -16 11 -29 17 -29 14 0
-3 -12 2 -27 13 -25 17 -177 92 -187 92 -2 0 -21 8 -42 17 -22 9 -41 17 -44
18 -3 1 -18 7 -35 14 -16 6 -41 15 -55 20 -14 5 -34 13 -45 17 -11 4 -23 8
-27 9 -5 2 -10 4 -13 5 -3 1 -8 3 -12 5 -5 1 -15 5 -23 8 -8 4 -24 8 -35 10
-11 1 -24 5 -30 8 -5 4 -23 10 -40 14 -45 12 -45 12 -47 15 -2 1 -10 3 -18 5
-8 1 -35 8 -60 15 -25 7 -47 12 -50 12 -3 0 -16 5 -30 10 -14 5 -33 12 -42 14
-10 2 -26 6 -35 9 -48 13 -138 34 -173 41 -14 3 -43 10 -65 16 -22 5 -51 12
-65 14 -14 2 -36 6 -50 9 -14 4 -41 9 -60 11 -19 3 -42 8 -50 11 -8 3 -28 7
-44 9 -29 4 -47 8 -96 19 -14 3 -36 7 -50 10 -47 8 -155 27 -175 30 -11 1 -76
12 -145 24 -69 11 -143 23 -165 26 -22 2 -53 8 -70 11 -16 3 -43 8 -60 10 -44
5 -96 12 -130 18 -16 2 -50 7 -75 11 -41 6 -59 9 -130 20 -14 2 -61 9 -105 15
-44 6 -91 13 -105 16 -27 5 -76 12 -129 20 -19 2 -43 6 -55 9 -12 2 -37 7 -56
9 -19 3 -73 12 -120 21 -116 22 -122 23 -150 29 -14 3 -38 8 -55 11 -25 3 -91
20 -285 69 -62 16 -232 92 -268 119 -41 32 -94 91 -104 115 -12 30 -20 142 -9
142 4 0 7 9 8 20 1 11 9 35 17 52 9 17 16 35 16 39 0 11 62 103 72 107 4 2 8
10 8 17 0 15 200 220 279 285 29 25 62 53 72 63 11 9 19 15 19 12 0 -4 27 16
54 40 6 6 34 26 61 45 28 19 59 42 69 52 11 10 26 18 33 18 7 0 13 4 13 9 0 5
14 14 30 21 17 7 30 16 30 21 0 5 4 9 10 9 5 0 32 16 60 36 27 20 50 32 50 27
0 -4 6 -1 13 8 7 9 22 19 34 23 13 4 29 13 35 20 7 6 38 25 68 40 30 16 57 31
60 35 11 14 503 261 570 286 3 1 19 8 37 14 18 7 35 12 39 11 4 -1 10 3 14 9
3 6 33 20 65 32 32 11 76 29 96 40 21 10 43 19 50 19 6 0 25 6 42 14 66 28
238 92 272 100 6 2 17 6 25 9 15 6 157 50 173 53 4 1 8 2 10 4 1 1 9 3 17 5 8
2 53 14 100 25 47 12 92 23 100 25 40 9 168 35 190 39 14 3 25 5 25 6 0 1 9 3
20 4 11 2 44 6 74 10 30 4 61 9 70 11 9 1 41 6 71 10 30 3 69 9 85 11 17 3 48
7 70 9 22 2 65 7 95 11 160 19 417 7 525 -26 61 -19 131 -73 119 -92 -3 -5 0
-8 6 -8 6 0 9 -4 5 -9 -3 -5 -1 -12 4 -15 16 -10 -20 -123 -50 -160 -5 -6 -23
-29 -40 -51 -16 -22 -35 -47 -42 -55 -54 -69 -130 -208 -122 -227 2 -7 1 -13
-3 -13 -5 0 -9 -20 -11 -43 -3 -62 5 -67 124 -82 54 -7 76 -18 133 -69 65 -59
82 -61 202 -31 87 22 83 21 100 28 8 3 40 13 70 22 30 10 59 21 65 26 5 5 14
9 21 9 6 0 29 8 50 17 22 9 41 17 44 18 8 3 43 17 80 33 19 9 40 16 45 16 6 1
32 13 58 28 26 16 50 28 52 28 3 0 13 8 23 18 10 9 33 28 52 42 83 62 250 225
319 310 20 25 39 47 42 50 20 16 125 180 158 247 43 85 87 209 99 276 4 23 7
83 6 133 -1 83 -4 99 -36 165 -22 48 -54 93 -90 129 -66 66 -108 102 -108 93
0 -3 -9 4 -20 17 -11 13 -20 19 -20 14 0 -5 -4 -4 -8 1 -13 18 -137 83 -217
114 -33 13 -69 27 -80 31 -11 5 -35 12 -52 15 -18 4 -33 10 -33 14 0 4 -10 8
-22 8 -13 1 -59 11 -103 22 -44 11 -98 23 -120 26 -22 3 -47 8 -55 10 -29 7
-125 18 -172 19 -27 1 -48 3 -48 6 0 3 -15 6 -32 7 -65 3 -379 9 -381 7z"/>
</g>
</svg>
